<?xml version="1.0" encoding="UTF-8"?>
<svg version="1.1" xmlns="http://www.w3.org/2000/svg" width="294" height="121">
<path d="M0 0 C97.02 0 194.04 0 294 0 C294 39.93 294 79.86 294 121 C196.98 121 99.96 121 0 121 C0 81.07 0 41.14 0 0 Z " fill="#FEFEFE" transform="translate(0,0)"/>
<path d="M0 0 C2.64 0 5.28 0 8 0 C8 11.55 8 23.1 8 35 C4.33333333 35 0.66666667 35 -3 35 C-3.68835938 35.05800781 -4.37671875 35.11601563 -5.0859375 35.17578125 C-9.51714955 35.44044409 -11.36323063 35.49084306 -15 32.6875 C-18.63926759 27.79723417 -18.53699901 22.88814702 -18 17 C-16.53861484 13.72928084 -14.75598676 11.28170067 -12 9 C-9.80859375 8.63671875 -9.80859375 8.63671875 -7.4375 8.6875 C-6.65246094 8.69136719 -5.86742187 8.69523437 -5.05859375 8.69921875 C-3 9 -3 9 -1 11 C-0.67 7.37 -0.34 3.74 0 0 Z " fill="#3562F3" transform="translate(181,44)"/>
<path d="M0 0 C1.26222884 2.41603219 2.0929628 4.45803679 2.89453125 7.02734375 C3.13161301 7.73145889 3.36869476 8.43557404 3.61296082 9.161026 C4.3658602 11.41386027 5.08894271 13.67509269 5.8125 15.9375 C6.31781438 17.45829727 6.82495464 18.97848915 7.33398438 20.49804688 C11 31.54808638 11 31.54808638 11 34 C8.36 34 5.72 34 3 34 C1.74335022 31.09399739 1 29.20395416 1 26 C-2.96 26.33 -6.92 26.66 -11 27 C-11.99 30.465 -11.99 30.465 -13 34 C-15.64 34 -18.28 34 -21 34 C-20.39039989 29.73120341 -19.39121817 25.86483291 -17.96875 21.796875 C-17.37126953 20.07984375 -17.37126953 20.07984375 -16.76171875 18.328125 C-16.34535156 17.14734375 -15.92898437 15.9665625 -15.5 14.75 C-15.08363281 13.55375 -14.66726562 12.3575 -14.23828125 11.125 C-11.16171288 2.32342575 -11.16171288 2.32342575 -10 0 C-6.38316102 -1.10514525 -3.54922293 -1.35621275 0 0 Z " fill="#3260F3" transform="translate(86,45)"/>
<path d="M0 0 C3.83810529 3.48918662 4.93251905 6.70517144 5.5 11.8125 C5.31528493 16.39519305 3.72567992 19.17613901 1.0625 22.875 C-3.50510857 25.84741339 -8.6902807 25.51338573 -13.9375 24.875 C-17.63779283 22.76054695 -19.32243686 20.7483549 -20.9375 16.875 C-21.6496481 11.85684011 -21.46662753 7.93325505 -19.1875 3.375 C-14.10856055 -2.26826606 -6.91506247 -2.6483218 0 0 Z " fill="#3461F3" transform="translate(144.9375,54.125)"/>
<path d="M0 0 C2.64 0 5.28 0 8 0 C8.33 5.28 8.66 10.56 9 16 C9.804375 14.845 10.60875 13.69 11.4375 12.5 C13.40276577 10.15770483 14.36829495 9.12223236 17.40234375 8.53515625 C19.63844091 8.55988402 21.78627681 8.69007875 24 9 C21.61820737 12.74281699 19.25524265 15.97727468 16 19 C17.31535569 22.60765033 18.91963438 25.54991462 21.125 28.6875 C24 32.77990431 24 32.77990431 24 35 C18.89819189 35.70369767 18.89819189 35.70369767 16 35 C14.04355231 33.09884322 12.6808311 31.15092523 11.2265625 28.84765625 C10.12448019 26.85480901 10.12448019 26.85480901 8 26 C8 28.97 8 31.94 8 35 C5.36 35 2.72 35 0 35 C0 23.45 0 11.9 0 0 Z " fill="#3663F3" transform="translate(100,44)"/>
<path d="M0 0 C3.62531608 1.8741654 5.69121639 4.07364917 7 8 C7 10.31 7 12.62 7 15 C1.39 15 -4.22 15 -10 15 C-8.50849326 19.13423413 -8.50849326 19.13423413 -5.5625 19.875 C-2.75556583 20.26646351 -2.75556583 20.26646351 0 18 C2.33199388 17.92094936 4.66832622 17.91201231 7 18 C5.71883251 21.95026644 4.58350471 23.86943246 1 26 C-3.05366518 26.66910567 -6.93913712 26.61023896 -11 26 C-13.97361086 23.78436838 -15.36959793 22.26080415 -17 19 C-18.03994013 9.07599989 -18.03994013 9.07599989 -15.953125 4.91015625 C-11.42223842 -0.54023378 -6.74103846 -0.93940965 0 0 Z " fill="#315FF3" transform="translate(210,53)"/>
<path d="M0 0 C2.64 0 5.28 0 8 0 C9.65 5.28 11.3 10.56 13 16 C14.32 10.72 15.64 5.44 17 0 C19.64 0 22.28 0 25 0 C23.36231563 9.00726401 20.13020303 17.42639358 17 26 C14.03 26 11.06 26 8 26 C6.65909207 22.2318169 5.3285821 18.46004479 4 14.6875 C3.6184375 13.61564453 3.236875 12.54378906 2.84375 11.43945312 C2.30234375 9.89741211 2.30234375 9.89741211 1.75 8.32421875 C1.41484375 7.37635498 1.0796875 6.42849121 0.734375 5.4519043 C0 3 0 3 0 0 Z " fill="#3361F3" transform="translate(218,53)"/>
<path d="M0 0 C2.3431213 0.25561323 4.67843403 0.59270772 7 1 C8.5635348 4.12706959 8.39958487 7.57982443 8 11 C7.01 12.485 7.01 12.485 6 14 C3 14.375 3 14.375 0 14 C-1.99825961 11.00261059 -2.27550398 10.36652492 -2.25 7 C-2.25515625 6.319375 -2.2603125 5.63875 -2.265625 4.9375 C-2 3 -2 3 0 0 Z " fill="#F6F8FE" transform="translate(134,59)"/>
<path d="M0 0 C2.4375 0.8125 2.4375 0.8125 4.4375 2.8125 C4.99550294 9.843337 4.99550294 9.843337 3.25 12.875 C1.4375 13.8125 1.4375 13.8125 -1.125 13.625 C-3.5625 12.8125 -3.5625 12.8125 -5.5625 10.8125 C-6.12050294 3.781663 -6.12050294 3.781663 -4.375 0.75 C-2.5625 -0.1875 -2.5625 -0.1875 0 0 Z " fill="#F9FAFE" transform="translate(176.5625,59.1875)"/>
<path d="M0 0 C2.00720923 0.28674418 4.0085944 0.61866701 6 1 C6.625 3.375 6.625 3.375 7 6 C5 8 5 8 2.5 8.25 C0 8 0 8 -2 6 C-1.44444444 1.44444444 -1.44444444 1.44444444 0 0 Z " fill="#3F6AF4" transform="translate(154,71)"/>
<path d="M0 0 C2 1 2 1 3.125 4.3125 C4 8 4 8 4 12 C1.69 12 -0.62 12 -3 12 C-2.01 8.04 -1.02 4.08 0 0 Z " fill="#EBEFFE" transform="translate(80,53)"/>
<path d="M0 0 C1.98 0 3.96 0 6 0 C6.33 1.32 6.66 2.64 7 4 C4.03 4 1.06 4 -2 4 C-1.34 2.68 -0.68 1.36 0 0 Z " fill="#F3F6FE" transform="translate(202,59)"/>
</svg>
